<?xml version="1.0" standalone="no"?>
<svg xmlns:xlink="http://www.w3.org/1999/xlink" id="wave" style="transform:rotate(0deg); transition: 0.3s" viewBox="0 0 1440 490" version="1.1" xmlns="http://www.w3.org/2000/svg"><defs><linearGradient id="sw-gradient-0" x1="0" x2="0" y1="1" y2="0"><stop stop-color="rgba(243, 106, 62, 1)" offset="0%"/><stop stop-color="rgba(255, 179, 11, 1)" offset="100%"/></linearGradient></defs><path style="transform:translate(0, 0px); opacity:1" fill="url(#sw-gradient-0)" d="M0,294L240,310.3C480,327,960,359,1440,334.8C1920,310,2400,229,2880,187.8C3360,147,3840,147,4320,179.7C4800,212,5280,278,5760,285.8C6240,294,6720,245,7200,196C7680,147,8160,98,8640,122.5C9120,147,9600,245,10080,277.7C10560,310,11040,278,11520,261.3C12000,245,12480,245,12960,212.3C13440,180,13920,114,14400,147C14880,180,15360,310,15840,375.7C16320,441,16800,441,17280,375.7C17760,310,18240,180,18720,171.5C19200,163,19680,278,20160,326.7C20640,376,21120,359,21600,351.2C22080,343,22560,343,23040,285.8C23520,229,24000,114,24480,114.3C24960,114,25440,229,25920,269.5C26400,310,26880,278,27360,253.2C27840,229,28320,212,28800,228.7C29280,245,29760,294,30240,261.3C30720,229,31200,114,31680,98C32160,82,32640,163,33120,204.2C33600,245,34080,245,34320,245L34560,245L34560,490L34320,490C34080,490,33600,490,33120,490C32640,490,32160,490,31680,490C31200,490,30720,490,30240,490C29760,490,29280,490,28800,490C28320,490,27840,490,27360,490C26880,490,26400,490,25920,490C25440,490,24960,490,24480,490C24000,490,23520,490,23040,490C22560,490,22080,490,21600,490C21120,490,20640,490,20160,490C19680,490,19200,490,18720,490C18240,490,17760,490,17280,490C16800,490,16320,490,15840,490C15360,490,14880,490,14400,490C13920,490,13440,490,12960,490C12480,490,12000,490,11520,490C11040,490,10560,490,10080,490C9600,490,9120,490,8640,490C8160,490,7680,490,7200,490C6720,490,6240,490,5760,490C5280,490,4800,490,4320,490C3840,490,3360,490,2880,490C2400,490,1920,490,1440,490C960,490,480,490,240,490L0,490Z"/><defs><linearGradient id="sw-gradient-1" x1="0" x2="0" y1="1" y2="0"><stop stop-color="rgba(243, 106, 62, 1)" offset="0%"/><stop stop-color="rgba(255, 179, 11, 1)" offset="100%"/></linearGradient></defs><path style="transform:translate(0, 50px); opacity:0.9" fill="url(#sw-gradient-1)" d="M0,392L240,351.2C480,310,960,229,1440,236.8C1920,245,2400,343,2880,367.5C3360,392,3840,343,4320,269.5C4800,196,5280,98,5760,65.3C6240,33,6720,65,7200,89.8C7680,114,8160,131,8640,122.5C9120,114,9600,82,10080,106.2C10560,131,11040,212,11520,253.2C12000,294,12480,294,12960,261.3C13440,229,13920,163,14400,114.3C14880,65,15360,33,15840,49C16320,65,16800,131,17280,204.2C17760,278,18240,359,18720,343C19200,327,19680,212,20160,171.5C20640,131,21120,163,21600,187.8C22080,212,22560,229,23040,253.2C23520,278,24000,310,24480,269.5C24960,229,25440,114,25920,122.5C26400,131,26880,261,27360,310.3C27840,359,28320,327,28800,302.2C29280,278,29760,261,30240,269.5C30720,278,31200,310,31680,334.8C32160,359,32640,376,33120,351.2C33600,327,34080,261,34320,228.7L34560,196L34560,490L34320,490C34080,490,33600,490,33120,490C32640,490,32160,490,31680,490C31200,490,30720,490,30240,490C29760,490,29280,490,28800,490C28320,490,27840,490,27360,490C26880,490,26400,490,25920,490C25440,490,24960,490,24480,490C24000,490,23520,490,23040,490C22560,490,22080,490,21600,490C21120,490,20640,490,20160,490C19680,490,19200,490,18720,490C18240,490,17760,490,17280,490C16800,490,16320,490,15840,490C15360,490,14880,490,14400,490C13920,490,13440,490,12960,490C12480,490,12000,490,11520,490C11040,490,10560,490,10080,490C9600,490,9120,490,8640,490C8160,490,7680,490,7200,490C6720,490,6240,490,5760,490C5280,490,4800,490,4320,490C3840,490,3360,490,2880,490C2400,490,1920,490,1440,490C960,490,480,490,240,490L0,490Z"/></svg>